<?xml version="1.0" encoding="utf-8"?>
<!-- Generator: Adobe Illustrator 22.0.1, SVG Export Plug-In . SVG Version: 6.00 Build 0)  -->
<svg version="1.1" id="Camada_1" xmlns="http://www.w3.org/2000/svg" xmlns:xlink="http://www.w3.org/1999/xlink" x="0px" y="0px"
	 viewBox="0 0 115.2 90" style="enable-background:new 0 0 115.2 90;" xml:space="preserve">
<style type="text/css">
	.st0{fill:#08B519;}
	.st1{fill:#FFFFFF;}
</style>
<g id="borda_x5F_baixo">
	<polygon class="st0" points="63.8,85.6 53.5,85.6 58.6,90 	"/>
	<polygon class="st0" points="60.5,90 70.8,90 65.7,85.6 	"/>
	<polygon class="st0" points="78.4,85.6 68.2,85.6 73.3,90 	"/>
	<polygon class="st0" points="93.1,85.6 82.9,85.6 88,90 	"/>
	<polygon class="st0" points="89.9,90 100.2,90 95,85.6 	"/>
	<polygon class="st0" points="107.8,85.6 97.5,85.6 102.7,90 	"/>
	<polygon class="st0" points="104.6,90 114.8,90 109.7,85.6 	"/>
	<polygon class="st0" points="75.2,90 85.5,90 80.4,85.6 	"/>
	<polygon class="st0" points="46.5,90 56.7,90 51.6,85.6 	"/>
	<polygon class="st0" points="13.3,90 3,90 8.1,85.6 	"/>
	<polygon class="st0" points="10,85.6 20.3,85.6 15.2,90 	"/>
	<polygon class="st0" points="27.9,90 17.7,90 22.8,85.6 	"/>
	<polygon class="st0" points="42.6,90 32.4,90 37.5,85.6 	"/>
	<polygon class="st0" points="39.4,85.6 49.7,85.6 44.5,90 	"/>
	<polygon class="st0" points="24.7,85.6 35,85.6 29.9,90 	"/>
</g>
<path class="st1" d="M94.3,38.8c0,0-0.6,10.9,0.7,12.4c1.2,0.3,4.8-0.3,4.8-0.3s1.7-6.1-0.7-13.2C98.2,37.4,94.2,37.2,94.3,38.8"/>
<path class="st1" d="M112,73.7c3.6-14.1,1-46.1-1.4-59.9c0.6-2.5,1.3-6.2,1.3-7.6c0-1.8-1.4,1-3.6,2c-4.9-2.3-17.5,3.2-21.4,5h0h0
	c-3.4,1-5.9-4.3-5.9-2c0,2,1.8,8.4,2.3,9.7c-0.7,4.5-1.3,11.2-2.2,20.1c-0.8,13.6,0.3,26.6,3,33.9c-0.4,2.3-0.8,4.9-0.7,6
	c0.1,1.9,1.5-1.5,4-2.3c6.6,2.3,15.3,1.6,22.5-0.5c2.2,0.9,3.7,3.4,3.6,1.7C113.3,78.7,112.6,76,112,73.7 M107.9,72.7
	c-6,2.1-14.4,2.9-19.7,1.9c-2.8-5.3-4-21.8-3.3-35.1c1.4-14.6,1.8-22.2,3.5-23.1c0.5-0.2,14.4-6.6,17.2-1.7
	C107.6,23.7,112.8,62.9,107.9,72.7"/>
<path class="st0" d="M95.5,41.2c0,0-0.3,5.2,0.3,6c0.6,0.2,2.3-0.1,2.3-0.1s0.8-2.9-0.3-6.4C97.4,40.6,95.5,40.5,95.5,41.2"/>
<path id="R_x5F_group" class="st1" d="M78.1,60.2c0.2-6.5-13.2-14.9-19.5-15.2l-0.1,0h-0.1C58,47.2,57,53.7,57,61.5
	c0,0.2,0,0.4,0,0.6c-0.8-0.8-2.2-2.4-2.2-2.4l-0.1,3.8l2.5,2.8c0.3,4.4,0.9,9.1,2.3,13.4l1.7,1.1L59.4,68l4.1,3.7l-1.2,1l1.4,1.5
	c0,0,0.4-0.6,1-1.3l0.6,0.5l-1.1,1.2l1.2,0.9l1-1.1l3.8,3.5l-2.7,0.5l7.4,2.8l-3.3-7.3l-0.5,2.7c-0.9-0.7-2.3-1.8-3.9-3.2l1.3-1.4
	l-1.1-1l-1.3,1.4c-0.2-0.2-0.4-0.4-0.7-0.6c0.6-0.7,1.3-1.4,1.5-1.4l-1-0.8l-1.5,1.2c-1.8-1.8-3.7-3.9-5-5.9
	c2.1,2.1,4.8,3.4,7.8,3.5C73.6,68.6,77.8,66.6,78.1,60.2z M58.7,58.5c0.2-5.1,1.6-9.9,3-9.8c4.8,0.2,13.2,6,13,11.1
	c-0.2,5.1-3,6.8-7.8,6.7C62.2,66.3,58.5,63.6,58.7,58.5z"/>
<g id="F_x5F_group">
	<path class="st1" d="M53.9,49.1c-5.9-0.6-12.1,0.7-17.9,3.3c-0.6,2.3-0.9,4.7-1,6.9c1.4-0.5,3.8-1.2,5.8-1.2l-0.1-1.4l4.7,1.5
		l-4.4,3.3l-0.1-1.5c-1.5,0.3-4.4,1-6,2c0,10.9,3.9,19.6,3.9,19.6l-2.8-0.6c-2.7-6.6-3.8-12.6-4.1-17.5c-0.8,0.1-1.5-0.1-1.7-0.6
		c-0.4-0.7,0.3-1.9,1.5-2.5c0,0,0.1,0,0.1-0.1c0-6.9,1.5-11.1,1.5-11.1s4.6-1.6,12.2-2.1C53.3,46.6,54.2,46.9,53.9,49.1"/>
	<path class="st1" d="M31.2,59.7c0,0.3-0.4,0.6-0.8,0.6c-0.4,0-0.7-0.3-0.7-0.6c0-0.3,0.4-0.6,0.8-0.6
		C30.9,59.1,31.2,59.4,31.2,59.7"/>
	<path class="st1" d="M31.3,57.2c0,0.5-0.4,0.8-0.8,0.8c-0.4,0-0.7-0.4-0.7-0.9c0-0.5,0.4-0.8,0.8-0.8C31,56.3,31.3,56.7,31.3,57.2"
		/>
	<path class="st1" d="M29.6,55.7l1.6-0.1c0,0,0.3-3.6,0.4-3.6C31.7,51.9,29,53,29.6,55.7"/>
	<path class="st1" d="M34.1,45.8c-0.1,0.1-0.8,2.2-0.7,2.5c0.1,0.3,3.1-0.4,3.1-0.6C36.6,47.5,34.6,45.5,34.1,45.8"/>
	<path class="st1" d="M38.1,45c-0.1,0.1-0.8,2.2-0.7,2.5c0.1,0.3,3.1-0.4,3.1-0.6C40.6,46.7,38.6,44.7,38.1,45"/>
	<path class="st1" d="M42.1,44.4c-0.1,0.1-0.9,2.1-0.8,2.4c0.1,0.3,3.1-0.3,3.2-0.5C44.6,46.2,42.7,44.1,42.1,44.4"/>
	<path class="st1" d="M46.2,44.3c-0.1,0-0.9,1.6-0.9,1.8c0,0.2,2.5,0.1,2.5,0C47.9,46.1,46.6,44.1,46.2,44.3"/>
	<path class="st1" d="M49.1,44.3c-0.1,0-0.9,1.6-0.9,1.8c0,0.2,2.4,0.1,2.5,0C50.8,46.1,49.5,44.2,49.1,44.3"/>
	<path class="st1" d="M52.1,45.1c-0.1,0-0.8,0.9-0.8,1.1c0,0.1,1.7,0.3,1.7,0.3C53,46.4,52.4,45,52.1,45.1"/>
</g>
<g id="A_x5F_group">
	<path class="st1" d="M27,78.7c-1.3-2.2-1.2-2.8-1.8-4.9c-0.6-2.2-5-19-12.4-24.2c-2,0.8-6.3,8.2-7,17.5c-0.7-0.3-1.2-0.1-1.2-0.1
		s-5.3,0.6-4.6,3.9c0.6,1.5,2.6,2.2,3.4-0.4c1-0.2,1.6-0.1,1.6-0.1l0,0.7c0,0,0.1,6,0.2,7.2c-0.6,1.4-1.7,2.8-1.7,2.8s4.1,0.7,5.9-1
		c0-0.4-0.7-3.2-0.9-7.4c1.8,0.3,8.1,0.9,12.2-1.3c0.4,1.9,0.7,3.8,0.9,5.9c0.7,2.7,1.1,3.9,4.3,3.5c2.1,0.1,2.6-0.1,2.6-0.1
		S28.2,80.2,27,78.7 M12.8,51.5c1.4,1.7,4.4,6.6,6.6,14.6c-0.8,0.2-3.5,0.8-7.2,0.7c-1.1,0-2.3-0.1-3.6-0.3
		C9.1,61.9,10.2,56.8,12.8,51.5 M8.5,68.2c0-0.1,0-0.3,0-0.4c1.7,0.1,8.2,0.3,11.2-0.7c0.1,0.3,0.1,0.5,0.2,0.8
		C17.6,68.4,11.6,69.5,8.5,68.2"/>
	<path class="st1" d="M8,53.5c0,0,1.7-1.6,1.9-2.4c-0.3-0.6-3-2.6-3.5-3.2C6,47.2,6,48.1,6,48.1S5.8,52,8,53.5"/>
	<path class="st1" d="M11.1,49.7c0,0,1.6-2.3,3.6-0.3c-0.3-2.6-1.2-5-2.3-5.8C10.2,45.1,11.1,49.7,11.1,49.7"/>
	<path class="st1" d="M17.5,52.3c0,0-1.5-1.7-1.8-2.6c0.4-0.6,3.2-2.4,3.7-3C20,46.2,20,47,20,47S19.8,51,17.5,52.3"/>
	<path class="st1" d="M4.5,73.2c0,0.4-0.4,0.7-0.8,0.7c-0.4,0-0.7-0.4-0.7-0.8c0-0.4,0.4-0.7,0.8-0.7C4.2,72.4,4.5,72.8,4.5,73.2"/>
	<path class="st1" d="M4.4,75.4c0,0.3-0.3,0.5-0.6,0.5c-0.3,0-0.5-0.3-0.5-0.6c0-0.3,0.3-0.5,0.6-0.5C4.2,74.9,4.4,75.1,4.4,75.4"/>
	<path class="st1" d="M4.4,77.2c0,0.2-0.1,0.3-0.3,0.3c-0.2,0-0.3-0.1-0.3-0.3c0-0.2,0.1-0.3,0.3-0.3C4.3,76.9,4.4,77.1,4.4,77.2"/>
	<path class="st1" d="M4.7,65.7c0,0.4-0.4,0.7-0.8,0.7c-0.4,0-0.7-0.4-0.7-0.8c0-0.4,0.4-0.7,0.8-0.7C4.4,64.9,4.8,65.3,4.7,65.7"/>
	<path class="st1" d="M5.6,63.2c0,0.5-0.5,1-1,1c-0.5,0-1-0.5-1-1c0-0.5,0.5-1,1-1C5.2,62.2,5.6,62.7,5.6,63.2"/>
</g>
<g id="T_x5F_group">
	<path class="st1" d="M51.3,10.4l0.4,3.3c0,0,7.7-2.4,8.4-0.5c0.6,1.9,0.9,8.2,0.8,9.4c-0.1,1.4,0,7.8,0.8,12.4
		c0.8,4.6,1.2,5.7,1.2,5.7s1.5,0.6,2,0.5c0.5-0.1-0.6-2.8-0.6-2.8s-1.1-4.9-0.8-8.2c0.3-2.6,1.2-12.6,0.4-16.9
		c0.5-1.3,7.1-0.4,14.6,1.2l0.1-1.3C78.8,13.4,60.8,8.5,51.3,10.4"/>
	<path class="st1" d="M59.8,15.2c0,0.7-0.5,1.2-1,1.2c-0.6,0-1-0.6-1-1.3c0-0.7,0.5-1.2,1-1.2C59.4,13.9,59.9,14.5,59.8,15.2"/>
	<path class="st1" d="M60.1,17.7c0,0.4-0.3,0.6-0.7,0.6c-0.4,0-0.6-0.3-0.6-0.7c0-0.4,0.3-0.6,0.7-0.6C59.8,17,60.1,17.3,60.1,17.7"
		/>
	<path class="st1" d="M60.1,20.2c0,0.3-0.2,0.5-0.5,0.5c-0.3,0-0.5-0.2-0.5-0.5c0-0.3,0.2-0.5,0.5-0.5
		C59.9,19.7,60.2,19.9,60.1,20.2"/>
	<path class="st1" d="M60.4,22.2c0,0.2-0.2,0.4-0.4,0.4c-0.2,0-0.4-0.2-0.4-0.4c0-0.2,0.2-0.4,0.4-0.4C60.2,21.8,60.4,22,60.4,22.2"
		/>
	<path class="st1" d="M51.8,9.8c0,0.1,3-0.1,3-0.1s-0.7-1.5-1.1-2.1C52.8,8.4,51.9,9.2,51.8,9.8"/>
	<path class="st1" d="M55.6,9.5c0,0.1,3,0.1,3,0.1S58,8,57.7,7.4C56.6,8.2,55.7,8.9,55.6,9.5"/>
	<path class="st1" d="M59.4,9.5c0,0.1,3,0.3,3,0.3s-0.5-1.6-0.8-2.2C60.5,8.3,59.5,8.9,59.4,9.5"/>
	<path class="st1" d="M62.9,9.8c0,0.1,3,0.3,3,0.3s-0.5-1.6-0.8-2.2C64,8.6,63.1,9.2,62.9,9.8"/>
	<path class="st1" d="M66.5,10.2c0,0.1,3,0.4,3,0.4S69,9,68.7,8.3C67.6,9,66.6,9.6,66.5,10.2"/>
	<path class="st1" d="M70.1,10.6c0,0.1,2.9,0.7,2.9,0.7S72.7,9.7,72.5,9C71.4,9.6,70.3,10.1,70.1,10.6"/>
	<path class="st1" d="M73.5,11.4c0,0.1,2.9,0.7,2.9,0.7s-0.3-1.6-0.5-2.3C74.7,10.4,73.7,10.9,73.5,11.4"/>
	<path class="st1" d="M76.8,12.3c0,0,1.9,0.4,1.9,0.4s-0.2-1.1-0.3-1.5C77.6,11.6,76.9,11.9,76.8,12.3"/>
</g>
<g id="I_x5F_group">
	<path class="st1" d="M44.6,13.7c0,0-3.3,15.7,1.2,24.9c2,1.9,2.5,2.4,2.5,2.4s-4.2-12.3-1.3-27.4C45.7,13.3,44.7,13.1,44.6,13.7"/>
	<path class="st1" d="M50.4,36.2c-0.1-0.1-2.6-1.8-2.9-1.8c-0.3,0,0.5,4.3,0.7,4.4C48.4,38.9,50.8,36.8,50.4,36.2"/>
	<path class="st1" d="M47.3,33c0.1,0.1,2.3-1.6,2-2.1c0-0.1-2.2-1.4-2.4-1.4"/>
	<path class="st1" d="M46.7,28.3c0.1,0.1,2.7-0.9,2.5-1.4c0-0.1-2.1-1.1-2.4-1"/>
	<path class="st1" d="M46.5,24.5c0.1,0.1,2.5-1.1,2.3-1.6c0-0.1-1.8-0.9-2.2-0.8"/>
	<path class="st1" d="M46.7,21.4c0.1,0.1,2.5-1.1,2.3-1.6c0-0.1-1.8-0.9-2.2-0.8"/>
	<path class="st1" d="M47,17.8c0.1,0.1,1.8-0.3,1.6-0.7c0-0.1-1-0.8-1.4-0.7"/>
	<path class="st1" d="M47.3,15.3c0.1,0.1,1.1-0.2,1.3-0.5c0.1-0.1-0.7-0.9-1.1-0.9"/>
	<path class="st1" d="M47.8,10.9c0,1.2-0.5,1.6-1.7,1.7c-1.6,0.2-1.7-0.5-1.7-1.8c0-1.2,0.5-1.7,2-1.4C47.6,9.7,47.8,9.7,47.8,10.9"
		/>
</g>
<g id="M_x5F_group">
	<path class="st1" d="M18.3,33.5c-1.4,0.7-3.7-2-2.7-4.2c0,0.1,0.1,0.4,0.1,0.5c0.2,0.6,0.7,1,1.4,1c0.8,0,1.2-0.9,1.2-1.7
		c0-0.2-0.1-0.4-0.1-0.6c0-0.1,0-0.2-0.1-0.2c-0.4-1.2-5.9-14.1-5.9-14.1S5.8,27.6,6.8,38.1c0.2,2.4-0.5,2.5-0.9,2.8
		c-0.4,0.3-1.6,0.1-1.7-0.3c0,0,0.9-17.7,7.2-28.9c1.1-1.5,1.9-2.2,3.2,1.1c0.9,3.2,5.2,14.9,5.2,14.9S21.5,31.3,18.3,33.5"/>
	<path class="st1" d="M17.7,29.3c0,0.3-0.3,0.6-0.6,0.6c-0.3,0-0.6-0.3-0.6-0.6c0-0.3,0.3-0.6,0.6-0.6
		C17.5,28.6,17.7,28.9,17.7,29.3"/>
	<path class="st1" d="M22.7,33.4c1.4,0.7,3.7-2,2.8-4.2c0,0.1-0.1,0.4-0.1,0.5c-0.2,0.6-0.7,1-1.4,1c-0.8,0-1.2-0.9-1.2-1.7
		c0-0.2,0.1-0.4,0.1-0.6c0-0.1,0-0.2,0.1-0.2c0.4-1.2,6-14,6-14s6.3,13.5,5.2,24c-0.2,2.4,0.5,2.5,0.9,2.8c0.4,0.3,1.6,0.1,1.7-0.3
		c0,0-0.7-17.8-6.8-28.9c-1-1.5-1.8-2.2-3.2,1.1c-0.9,3.2-5.4,14.8-5.4,14.8S19.5,31.1,22.7,33.4"/>
	<path class="st1" d="M23.3,29.1c0,0.3,0.3,0.6,0.6,0.6c0.3,0,0.6-0.3,0.6-0.6c0-0.3-0.3-0.6-0.6-0.6C23.6,28.5,23.3,28.8,23.3,29.1
		"/>
	<path class="st1" d="M18.9,34l1.8,2.4l1.6-2.4c0,0-1.5-0.8-1.7-1C19.6,33.7,19.8,33.6,18.9,34"/>
	<path class="st1" d="M4.1,34l-0.6,6.6c0,0-1.5-2.4-1.5-2.6C2.1,37.9,4.1,34,4.1,34"/>
	<path class="st1" d="M4.3,32.9l1-5.6l-2.5,1.8C2.9,29.2,3.9,32.1,4.3,32.9"/>
	<path class="st1" d="M5.4,26.5L6.3,23l-2.4,0.8C3.8,23.8,4.9,26.1,5.4,26.5"/>
	<path class="st1" d="M6.5,22.3l1.2-3.4l-2.2,0.3C5.5,19.2,6.5,22,6.5,22.3"/>
	<path class="st1" d="M8.1,17.7l1-2.6L7,15.4C7,15.4,8.2,17.6,8.1,17.7"/>
	<path class="st1" d="M9.4,14.2l1.2-2.6c0,0-1.5,0.4-1.7,0.4C8.7,12,9.4,14.1,9.4,14.2"/>
	<path class="st1" d="M36.9,33.6l0.5,6.6c0,0,1.5-2.4,1.5-2.5C38.9,37.5,36.9,33.6,36.9,33.6"/>
	<path class="st1" d="M36.7,32.5l-0.9-5.6l2.4,1.8C38.2,28.8,37.2,31.7,36.7,32.5"/>
	<path class="st1" d="M35.7,26.1l-0.8-3.5l2.4,0.8C37.3,23.4,36.2,25.6,35.7,26.1"/>
	<path class="st1" d="M34.7,21.8l-1.1-3.4l2.2,0.3C35.7,18.8,34.7,21.6,34.7,21.8"/>
	<path class="st1" d="M33.1,17.3l-0.9-2.6l2.1,0.4C34.2,15,33.1,17.2,33.1,17.3"/>
	<path class="st1" d="M31.9,13.7l-1.2-2.6c0,0,1.4,0.4,1.7,0.4C32.6,11.5,31.9,13.6,31.9,13.7"/>
</g>
<g id="borda_x5F_top">
	<polygon class="st0" points="64.1,0 53.9,0 59,4.4 	"/>
	<polygon class="st0" points="60.9,4.4 71.2,4.4 66,0 	"/>
	<polygon class="st0" points="78.8,0 68.5,0 73.7,4.4 	"/>
	<polygon class="st0" points="93.5,0 83.2,0 88.3,4.4 	"/>
	<polygon class="st0" points="90.3,4.4 100.5,4.4 95.4,0 	"/>
	<polygon class="st0" points="108.1,0 97.9,0 103,4.4 	"/>
	<polygon class="st0" points="104.9,4.4 115.2,4.4 110.1,0 	"/>
	<polygon class="st0" points="75.6,4.4 85.8,4.4 80.7,0 	"/>
	<polygon class="st0" points="46.8,4.4 57.1,4.4 51.9,0 	"/>
	<polygon class="st0" points="13.6,4.4 3.4,4.4 8.5,0 	"/>
	<polygon class="st0" points="10.4,0 20.7,0 15.5,4.4 	"/>
	<polygon class="st0" points="28.3,4.4 18,4.4 23.2,0 	"/>
	<polygon class="st0" points="43,4.4 32.7,4.4 37.8,0 	"/>
	<polygon class="st0" points="39.8,0 50,0 44.9,4.4 	"/>
	<polygon class="st0" points="25.1,0 35.3,0 30.2,4.4 	"/>
</g>
</svg>
