<?xml version="1.0" encoding="utf-8"?>
<!-- Generator: Adobe Illustrator 22.0.1, SVG Export Plug-In . SVG Version: 6.00 Build 0)  -->
<svg version="1.1" id="Camada_1" xmlns="http://www.w3.org/2000/svg" xmlns:xlink="http://www.w3.org/1999/xlink" x="0px" y="0px"
	 viewBox="0 0 92.9 83" style="enable-background:new 0 0 92.9 83;" xml:space="preserve">
<style type="text/css">
	.st0{stroke:#9E0000;stroke-width:3;stroke-miterlimit:10;}
	.st1{fill:#FFFFFF;}
	.st2{fill:#9E0000;}
</style>
<rect x="1.5" y="1.5" class="st0" width="89.9" height="80"/>
<path class="st1" d="M41.7,59.5c-3.1,1.6-8.1-4.7-6-9.7c0.1,0.2,0.2,1,0.3,1.2c0.4,1.4,1.6,2.2,3,2.2c1.7,0,2.7-2.1,2.7-3.9
	c0-0.6-0.2-1-0.3-1.4c-0.1-0.3-0.1-0.4-0.1-0.5c-0.9-2.7-13-32.3-13-32.3s-14,31-11.7,55.2c0.4,5.5-1.2,5.8-2,6.4
	c-0.8,0.7-3.4,0.2-3.8-0.7c0,0,1.7-40.9,15.2-66.5c2.3-3.5,4.1-5,6.9,2.5C34.8,19.3,44.4,46,44.4,46S48.7,54.4,41.7,59.5z"/>
<path class="st2" d="M40.3,49.7c0,0.8-0.6,1.4-1.4,1.4s-1.4-0.6-1.4-1.4c0-0.8,0.6-1.4,1.4-1.4S40.3,48.9,40.3,49.7z"/>
<path class="st1" d="M51.1,59.1c3.1,1.6,8.1-4.7,6-9.7c-0.1,0.2-0.2,1-0.3,1.2c-0.4,1.4-1.6,2.2-3,2.2c-1.7,0-2.7-2.1-2.7-3.9
	c0-0.6,0.2-1,0.3-1.4c0.1-0.3,0.1-0.4,0.1-0.5c0.9-2.7,13-32.3,13-32.3s14,31,11.7,55.2c-0.4,5.5,1.2,5.8,2,6.4
	c0.8,0.7,3.4,0.2,3.8-0.7c0,0-1.7-40.9-15.2-66.5c-2.3-3.5-4.1-5-6.9,2.5c-1.9,7.4-11.5,34.1-11.5,34.1S44.1,54,51.1,59.1z"/>
<path class="st2" d="M52.5,49.3c0,0.8,0.6,1.4,1.4,1.4c0.8,0,1.4-0.6,1.4-1.4c0-0.8-0.6-1.4-1.4-1.4C53.1,47.8,52.5,48.5,52.5,49.3z
	"/>
<path class="st2" d="M43,60.5l4,5.5l3.4-5.5c0,0-3.3-1.9-3.7-2.2C44.5,59.9,44.8,59.6,43,60.5z"/>
<path class="st2" d="M10.8,60.8L9.6,76c0,0-3.2-5.5-3.2-5.9C6.4,69.7,10.8,60.8,10.8,60.8z"/>
<path class="st2" d="M11.1,58.3l2.1-12.9l-5.3,4.2C7.9,49.7,10.1,56.5,11.1,58.3z"/>
<path class="st2" d="M13.5,43.6l1.8-8.1l-5.3,1.8C9.9,37.3,12.4,42.5,13.5,43.6z"/>
<path class="st2" d="M15.8,33.7l2.5-7.8l-4.8,0.8C13.5,26.7,15.7,33.2,15.8,33.7z"/>
<path class="st2" d="M19.3,23.3l2.1-6.1L16.8,18C16.8,18,19.3,23.1,19.3,23.3z"/>
<path class="st2" d="M21.9,15.2l2.7-5.9c0,0-3.2,0.9-3.6,0.9C20.5,10.1,21.8,14.8,21.9,15.2z"/>
<path class="st2" d="M82.1,59.4l1.2,15.2c0,0,3.2-5.5,3.2-5.9C86.5,68.3,82.1,59.4,82.1,59.4z"/>
<path class="st2" d="M81.8,56.9L79.6,44l5.3,4.2C85,48.2,82.8,55,81.8,56.9z"/>
<path class="st2" d="M79.4,42.1l-1.8-8.1l5.3,1.8C83,35.8,80.5,41,79.4,42.1z"/>
<path class="st2" d="M77.1,32.3l-2.5-7.8l4.8,0.8C79.4,25.3,77.2,31.7,77.1,32.3z"/>
<path class="st2" d="M73.7,21.9l-2.1-6.1l4.5,0.8C76.1,16.6,73.6,21.6,73.7,21.9z"/>
<path class="st2" d="M71,13.8l-2.7-5.9c0,0,3.2,0.9,3.6,0.9C72.5,8.7,71.1,13.4,71,13.8z"/>
</svg>
